<?xml version="1.0" standalone="no"?>
<!DOCTYPE svg PUBLIC "-//W3C//DTD SVG 20010904//EN"
 "http://www.w3.org/TR/2001/REC-SVG-20010904/DTD/svg10.dtd">
<svg version="1.0" xmlns="http://www.w3.org/2000/svg"
 width="338.000000pt" height="338.000000pt" viewBox="0 0 338.000000 338.000000"
 preserveAspectRatio="xMidYMid meet">
<metadata>
Created by potrace 1.11, written by Peter Selinger 2001-2013
</metadata>
<g transform="translate(0.000000,338.000000) scale(0.100000,-0.100000)"
fill="#000000" stroke="none">
<path d="M3351 3358 c-53 -149 -64 -178 -69 -174 -3 3 -16 -9 -29 -26 -12 -18
-23 -25 -23 -17 -1 21 -101 -219 -140 -334 -18 -54 -37 -100 -42 -103 -4 -3
-8 -16 -8 -30 0 -14 -4 -22 -10 -19 -5 3 -10 -1 -10 -9 0 -8 -16 -31 -35 -50
-19 -20 -35 -39 -35 -44 0 -13 -47 -31 -96 -37 -22 -2 -123 -9 -225 -15 -101
-6 -204 -13 -229 -15 -25 -2 -121 -6 -215 -10 -168 -6 -249 -16 -312 -38 -18
-6 -30 -14 -27 -19 3 -4 -2 -8 -10 -8 -9 0 -16 -4 -16 -10 0 -5 -11 -25 -24
-45 -29 -43 -104 -229 -116 -289 l-8 -41 -2 60 c-2 35 -5 48 -7 30 -14 -96
-50 -226 -112 -402 -39 -109 -75 -205 -80 -213 -5 -9 -12 -31 -16 -49 -10 -48
-72 -149 -95 -156 -24 -8 -84 10 -100 30 -7 8 -16 13 -20 10 -5 -3 -69 59
-143 137 l-135 141 -59 -26 c-32 -14 -109 -48 -172 -76 -63 -28 -116 -49 -119
-46 -3 3 1 5 8 5 7 0 11 2 8 5 -18 19 -226 -51 -412 -139 -65 -31 -120 -56
-122 -56 -2 0 -4 8 -4 18 0 11 -7 6 -20 -16 -11 -18 -31 -38 -45 -44 l-25 -11
0 -614 0 -613 1690 0 1690 0 0 1690 c0 1147 -3 1690 -10 1690 -6 0 -14 -10
-19 -22z m-2367 -1878 c35 -39 46 -57 26 -45 -5 3 -10 2 -10 -3 0 -9 -66 -32
-94 -32 -16 0 -38 18 -65 52 -11 15 -7 20 36 42 26 14 53 25 59 26 7 0 28 -18
48 -40z m281 -176 c9 -15 12 -23 6 -20 -11 7 -35 46 -28 46 3 0 12 -12 22 -26z"/>
</g>
</svg>
